<svg xmlns="http://www.w3.org/2000/svg" viewBox="0 0 108 108">
  <defs>
    <linearGradient id="lineGrad" x1="0" y1="1" x2="1" y2="0">
      <stop offset="0%" stop-color="#ef4444"/>
      <stop offset="100%" stop-color="#f87171"/>
    </linearGradient>
    <linearGradient id="bgGrad" x1="0" y1="0" x2="1" y2="1">
      <stop offset="0%" stop-color="#0f2810"/>
      <stop offset="100%" stop-color="#071a07"/>
    </linearGradient>
  </defs>
  <rect width="108" height="108" rx="24" fill="url(#bgGrad)"/>
  <path d="M22,22 h62 a6,6 0 0,1 6,6 v46 a6,6 0 0,1 -6,6 h-18 l-8,16 l2,-16 h-38 a6,6 0 0,1 -6,-6 v-46 a6,6 0 0,1 6,-6 z" fill="none" stroke="#34d399" stroke-width="2.5" stroke-linecap="round" stroke-linejoin="round"/>
  <g stroke="rgba(52,211,153,0.25)" stroke-width="0.8">
    <line x1="28" y1="36" x2="80" y2="36"/>
    <line x1="28" y1="46" x2="80" y2="46"/>
    <line x1="28" y1="56" x2="80" y2="56"/>
    <line x1="28" y1="66" x2="80" y2="66"/>
  </g>
  <polyline points="30,68 42,58 52,48 62,42 74,36 80,31" fill="none" stroke="url(#lineGrad)" stroke-width="3" stroke-linecap="round" stroke-linejoin="round"/>
  <g fill="#ef4444">
    <circle cx="30" cy="68" r="3.5"/>
    <circle cx="42" cy="58" r="3.5"/>
    <circle cx="52" cy="48" r="3.5"/>
    <circle cx="62" cy="42" r="3.5"/>
    <circle cx="74" cy="36" r="3.5"/>
    <circle cx="80" cy="31" r="4.5"/>
  </g>
</svg>
